<svg width="45" height="73" viewBox="0 0 45 73" fill="none" xmlns="http://www.w3.org/2000/svg">
<g clip-path="url(#clip0_52_2)">
<path d="M22.6626 0.97348V27.2872C22.6626 27.3989 22.5509 27.5106 22.4392 27.5106C21.6573 27.8521 20.9871 28.1904 20.2052 28.5287C19.1999 28.9787 18.0828 29.4319 17.0775 29.9968L13.3914 31.6883L10.3754 33.0447L6.68924 34.7393C5.68393 35.1925 4.67861 35.6425 3.56159 36.2074C2.77968 36.5457 1.88606 36.9989 1.10415 37.3372C0.992447 37.3372 0.992447 37.4489 0.880745 37.3372H0.769043C1.10415 36.7723 1.43925 36.3191 1.77436 35.7574C3.56159 32.7064 5.46052 29.6585 7.24775 26.6074C9.14668 23.3362 11.1573 20.0585 13.0562 16.7841C14.8435 13.7362 16.6307 10.6883 18.4179 7.75219C19.7584 5.48943 21.0988 3.34795 22.3275 1.08519C22.5509 1.08519 22.5509 0.97348 22.6626 0.97348Z" fill="#7C6B61"/>
<path d="M44.3326 37.2332C42.6571 38.363 40.8699 39.3779 39.1944 40.3928C33.721 43.6704 28.3593 46.8332 22.8859 50.1076C22.7742 50.1076 22.7742 50.2193 22.6625 50.2193C22.5508 50.2193 22.5508 50.1076 22.5508 50.1076V27.4066C22.5508 27.2949 22.6625 27.2949 22.7742 27.2949C23.221 27.5183 23.6678 27.7481 24.2263 27.9715C25.5667 28.6513 27.0189 29.2162 28.3593 29.8928C29.588 30.4577 30.705 31.0226 31.9337 31.4726C33.1625 32.0375 34.2795 32.6023 35.5082 33.1672C36.5135 33.6204 37.6305 34.0704 38.6359 34.6353C39.6412 35.0885 40.7582 35.5385 41.7635 36.1034C42.5454 36.4417 43.3273 36.8949 44.2209 37.2332C44.2209 37.1215 44.2209 37.2332 44.3326 37.2332Z" fill="#483C32"/>
<path d="M22.6627 72.4051C22.551 72.4051 22.551 72.4051 22.4393 72.2902C20.2053 69.1306 18.0829 66.0796 15.8489 62.9168L9.1468 53.4317C7.02446 50.3839 4.79042 47.336 2.66809 44.1701L0.992561 41.7988C0.992561 41.6871 0.880859 41.6871 0.880859 41.5754C0.992561 41.5754 0.992561 41.6871 1.10426 41.6871C4.12021 43.4935 7.24787 45.2998 10.2638 47.1062C13.7266 49.2541 17.301 51.2871 20.7638 53.4317C21.3223 53.77 21.9925 54.1083 22.551 54.4466C22.6627 54.4466 22.6627 54.5615 22.6627 54.6732V72.4051Z" fill="#7C6B61"/>
<path d="M0.868652 37.3534C0.868652 37.2417 0.868652 37.2417 0.868652 37.3534C1.98567 36.7885 3.10269 36.3385 4.21971 35.7736L8.57608 33.7407C9.6931 33.1758 10.8101 32.7258 11.9271 32.1609C13.491 31.3694 15.1665 30.6928 16.7303 29.9013C17.8473 29.4481 18.9644 28.8832 20.0814 28.4332C20.8633 28.0949 21.6452 27.7566 22.4271 27.3034C22.5388 27.3034 22.5388 27.1917 22.6505 27.1917V50.2278C22.5388 50.3427 22.5388 50.2278 22.4271 50.2278C22.092 50.0044 21.7569 49.8895 21.5335 49.663L1.09206 37.4683C0.980354 37.3534 0.868652 37.3534 0.868652 37.3534ZM44.0973 41.5343C44.0973 41.646 44.0973 41.646 43.9856 41.7577C37.5069 51.0193 31.0282 60.1661 24.5494 69.4278C23.8792 70.4427 23.209 71.3459 22.5388 72.364V54.4055C23.9909 53.5023 25.4431 52.5991 26.8952 51.8108L43.9856 41.646C43.9856 41.5343 44.0973 41.5343 44.0973 41.5343Z" fill="#52453B"/>
<path d="M22.6626 27.3989V1.09152L44.1094 37.0021C44.2211 37.1138 44.3328 37.2255 44.3328 37.3404C43.886 37.117 43.4391 36.8872 42.8806 36.6638C42.3221 36.4372 41.7636 36.0989 41.2051 35.8723C40.87 35.7606 40.5349 35.534 40.0881 35.4191C39.5296 35.1957 38.8594 34.8542 38.3009 34.6308C37.9658 34.5159 37.6306 34.2925 37.2955 34.1776L34.9498 33.1627C34.503 32.9361 34.1679 32.8244 33.7211 32.5978C33.1626 32.3712 32.6041 32.0329 32.0456 31.8063C31.7105 31.6946 31.3753 31.468 31.0402 31.3563L28.6945 30.3383C28.2477 30.1149 27.9126 30 27.4658 29.7734C26.9073 29.55 26.3488 29.2085 25.7903 28.9819C25.4551 28.7585 25.0083 28.6436 24.6732 28.4202L22.6626 27.4021V27.3989Z" fill="#594A42"/>
</g>
<defs>
<clipPath id="clip0_52_2">
<rect width="45" height="73" fill="white"/>
</clipPath>
</defs>
</svg>
